<svg xmlns="http://www.w3.org/2000/svg" width="66.708" height="53.72" viewBox="0 0 66.708 53.72">
  <path id="Union_110" data-name="Union 110" d="M4098.359,318.283l-5.836-5.794a1.478,1.478,0,0,1,0-2.109l1.06-1.057a1.511,1.511,0,0,1,2.12.006l5.836,5.794a1.473,1.473,0,0,1,0,2.1l-1.061,1.057a1.507,1.507,0,0,1-1.064.441A1.483,1.483,0,0,1,4098.359,318.283Zm1.55-6.323-3.479-3.454a12.482,12.482,0,0,0-6.146-17.424c2.5-1.847,6.232-2.862,10.509-2.862,4.993,0,8.706,1.151,11.691,3.629,3.181,2.6,5.317,7.929,5.317,13.255v2.535a3.883,3.883,0,0,1-3.689,3.467,97.7,97.7,0,0,1-13.284.859C4100.522,311.964,4100.217,311.962,4099.909,311.96Zm-22.763-3.161a10.366,10.366,0,0,1-.009-14.738,10.546,10.546,0,0,1,14.853,0,10.365,10.365,0,0,1,0,14.747,10.546,10.546,0,0,1-14.844-.009Zm2.647-12.1a6.672,6.672,0,0,0,0,9.472,6.794,6.794,0,0,0,9.549.006,6.7,6.7,0,0,0-4.769-11.442A6.763,6.763,0,0,0,4079.794,296.7Zm3.993,9.8V305.1a18.821,18.821,0,0,1,1.214-6.672c.108-.009.208-.011.3-.011a4.177,4.177,0,1,1-1.515,8.075Zm8.506-30.94c0-5.822,3.813-10.556,8.5-10.556s8.507,4.735,8.507,10.556-3.815,10.548-8.507,10.548S4092.293,281.371,4092.293,275.556Zm29.877,7.72a7.81,7.81,0,0,1-3.681-.943c-.039-.019-.078-.045-.126-.073a1.786,1.786,0,0,0-.654-.276,2.078,2.078,0,0,0-.438-.041,3.452,3.452,0,0,0-.5.039l-7.226.958a2.647,2.647,0,0,1-.459.045c-.215,0-.341-.039-.373-.118-.082-.2.5-.667.567-.721l4.892-4.233a1.708,1.708,0,0,0,.379-.536,1.131,1.131,0,0,0,.061-.747,7.157,7.157,0,0,1-.061-.956,7.623,7.623,0,0,1,7.624-7.6h10.982a7.6,7.6,0,1,1,0,15.205Zm3.651-6.913v2.3h.743v-3.08a.179.179,0,0,0,.164-.11l-.134-.043a9.9,9.9,0,0,0,.567-.846.34.34,0,0,0,.049,0,.144.144,0,0,0,.125-.06l-.817-.338a6.89,6.89,0,0,1-1.662,2.051,5.78,5.78,0,0,1,.455.607,6.943,6.943,0,0,0,.507-.484l0,0Zm2.432,2.29.037,0c1.219,0,1.525-.082,1.525-.837v-2.128h.906v-.7h-3.5v.7h1.845v2.109c0,.118-.052.118-.3.118-.146,0-.393,0-.735-.013A2.906,2.906,0,0,1,4128.253,278.653Zm3.982-1.349h3.053l.052,1.261h.825l.037-2.019-.475-.024v-3.362h-3.366v1.07a4.026,4.026,0,0,1-.634,2.292l-.418.03.039,2.012h.833l.052-1.259v0Zm-9.64.523a.554.554,0,0,0,.53.433.547.547,0,0,0,.542-.538v-3.994a.545.545,0,0,0-.542-.549.553.553,0,0,0-.53.448,2.329,2.329,0,0,0-1.355-.448,2.357,2.357,0,0,0-1.731.762,2.65,2.65,0,0,0,0,3.577,2.37,2.37,0,0,0,1.731.742,2.343,2.343,0,0,0,1.353-.435l0,0Zm2.271-3.672a5.143,5.143,0,0,1,.417.611,9.055,9.055,0,0,0,1.641-1.524.258.258,0,0,0,.039,0,.157.157,0,0,0,.135-.058l-.812-.346A5.6,5.6,0,0,1,4124.866,274.155Zm2.571-.247h3.038v-.7h-3.038Zm-7.145,2.867a1.52,1.52,0,0,1-.388-1.044,1.493,1.493,0,0,1,.388-1.048,1.23,1.23,0,0,1,.947-.418,1.263,1.263,0,0,1,.949.418,1.5,1.5,0,0,1,.4,1.048,1.526,1.526,0,0,1-.4,1.044,1.316,1.316,0,0,1-.949.4A1.282,1.282,0,0,1,4120.293,276.774Zm14.375-.273h-1.852a4.359,4.359,0,0,0,.5-2.04v-.491h1.357V276.5Z" transform="translate(-4074.066 -265)" fill="#fff"/>
</svg>
